# xmcd
#
# Track frame offsets: 
#        150
#        16692
#        38609
#        56460
#        73018
#        90919
#        113522
#        134486
#        150649
#        171451
#        188372
#        209374
#        233550
#        251925
#        273913
#        296070
#        321398
#
# Disc length: 4538 seconds
#
# Revision: 0
# Processed by: cddbd v1.5.2PL0 Copyright (c) Steve Scherf et al.
# Submitted via: ExactAudioCopyFreeDBPlugin 1.0
#
DISCID=e611b811
DTITLE=Thanh Lam - Ngay anh den
DYEAR=1900
DGENRE=
TTITLE0=Ngau nhien
TTITLE1=Nuoi tiec
TTITLE2=Ha Tran - Trai tim lang thang
TTITLE3=Xa cach
TTITLE4=Ngay anh den
TTITLE5=Ha Tran - Tinh oi
TTITLE6=Chi la giac mo
TTITLE7=Ha Tran - La yeu chua tung yeu
TTITLE8=Anh co nghe hat
TTITLE9=Ha Tran - Gio
TTITLE10=Trong niem ky uc
TTITLE11=Giac mo
TTITLE12=Ha Tran - Chay tron
TTITLE13=Au lo
TTITLE14=Ha Tran - Tinh ca
TTITLE15=Yeu nhau nhu moi hom qua
TTITLE16=Hay yeu nhau di
EXTD=
EXTT0=
EXTT1=
EXTT2=
EXTT3=
EXTT4=
EXTT5=
EXTT6=
EXTT7=
EXTT8=
EXTT9=
EXTT10=
EXTT11=
EXTT12=
EXTT13=
EXTT14=
EXTT15=
EXTT16=
PLAYORDER=
